#N canvas 827 239 1000 1000 12;
#N canvas 0 50 450 300 osc_drone 0;
#X obj 2642 1105 tgl 54 0 empty empty empty 17 7 0 10 #191919 #e1e1e1 #e1e1e1 0 1;
#X obj 53 291 phasor~ 100;
#X obj 144 291 phasor~ 101;
#X obj 53 110 inlet;
#X text 53 72 = Midi input convert to notes;
#X obj 53 180 mtof;
#X obj 2644 1444 s hold;
#X obj 53 467 *~;
#X obj 53 383 +~;
#X obj 2631 1033 inlet;
#X floatatom 272 160 5 0 5 0 - - - 12;
#X text 330 159 = Detune;
#X floatatom 65 238 5 0 0 0 - - - 0;
#X floatatom 160 238 5 0 0 0 - - - 0;
#X obj 160 205 + 1;
#X obj 270 205 sel 0;
#X obj 270 238 bng 25 250 50 0 empty empty empty 17 7 0 10 #191919 #e1e1e1 #e1e1e1;
#X obj 299 238 bng 25 250 50 0 empty empty empty 17 7 0 10 #191919 #e1e1e1 #e1e1e1;
#X obj 270 291 + 1;
#X obj 128 151 mtof;
#X obj 276 114 r volt;
#X obj 2755 1043 inlet;
#X floatatom 2757 1095 5 0 0 0 - - - 12;
#X obj 2755 1152 s volt;
#X obj 163 434 inlet;
#X obj 163 485 select 1, f 7;
#X msg 204 529 0, f 3;
#X floatatom 188 568 5 0 0 0 - - - 12;
#X obj 242 546 spigot;
#X obj 242 434 r hold;
#X floatatom 112 434 5 0 0 0 - - - 12;
#X msg 163 529 0.4, f 4;
#X obj 163 322 r hold;
#X msg 128 391 0, f 3;
#X obj 171 391 select 0;
#X text 242 341 = big uselles system to shutdown sound, f 17;
#X obj 410 291 phasor~ 100;
#X obj 501 291 phasor~ 101;
#X obj 410 110 inlet;
#X text 410 72 = Midi input convert to notes;
#X obj 410 180 mtof;
#X obj 410 467 *~;
#X obj 410 383 +~;
#X floatatom 629 160 5 0 5 0 - - - 12;
#X text 687 159 = Detune;
#X floatatom 422 238 5 0 0 0 - - - 0;
#X floatatom 517 238 5 0 0 0 - - - 0;
#X obj 517 205 + 1;
#X obj 627 205 sel 0;
#X obj 627 238 bng 25 250 50 0 empty empty empty 17 7 0 10 #191919 #e1e1e1 #e1e1e1;
#X obj 656 238 bng 25 250 50 0 empty empty empty 17 7 0 10 #191919 #e1e1e1 #e1e1e1;
#X obj 627 291 + 1;
#X obj 485 151 mtof;
#X obj 633 114 r volt;
#X obj 520 434 inlet;
#X obj 520 485 select 1, f 7;
#X msg 561 529 0, f 3;
#X floatatom 545 568 5 0 0 0 - - - 12;
#X obj 599 546 spigot;
#X obj 599 434 r hold;
#X floatatom 469 434 5 0 0 0 - - - 12;
#X msg 520 529 0.4, f 4;
#X obj 520 322 r hold;
#X msg 485 391 0, f 3;
#X obj 528 391 select 0;
#X text 599 341 = big uselles system to shutdown sound, f 17;
#X obj 757 291 phasor~ 100;
#X obj 848 291 phasor~ 101;
#X obj 757 110 inlet;
#X text 757 72 = Midi input convert to notes;
#X obj 757 180 mtof;
#X obj 757 467 *~;
#X obj 757 383 +~;
#X floatatom 976 160 5 0 5 0 - - - 12;
#X text 1034 159 = Detune;
#X floatatom 769 238 5 0 0 0 - - - 0;
#X floatatom 864 238 5 0 0 0 - - - 0;
#X obj 864 205 + 1;
#X obj 974 205 sel 0;
#X obj 974 238 bng 25 250 50 0 empty empty empty 17 7 0 10 #191919 #e1e1e1 #e1e1e1;
#X obj 1003 238 bng 25 250 50 0 empty empty empty 17 7 0 10 #191919 #e1e1e1 #e1e1e1;
#X obj 974 291 + 1;
#X obj 832 151 mtof;
#X obj 980 114 r volt;
#X obj 867 434 inlet;
#X obj 867 485 select 1, f 7;
#X msg 908 529 0, f 3;
#X floatatom 892 568 5 0 0 0 - - - 12;
#X obj 946 546 spigot;
#X obj 946 434 r hold;
#X floatatom 816 434 5 0 0 0 - - - 12;
#X msg 867 529 0.4, f 4;
#X obj 867 322 r hold;
#X msg 832 391 0, f 3;
#X obj 875 391 select 0;
#X text 946 341 = big uselles system to shutdown sound, f 17;
#X obj 1104 291 phasor~ 100;
#X obj 1195 291 phasor~ 101;
#X obj 1104 110 inlet;
#X text 1104 72 = Midi input convert to notes;
#X obj 1104 180 mtof;
#X obj 1104 467 *~;
#X obj 1104 383 +~;
#X floatatom 1323 160 5 0 5 0 - - - 12;
#X text 1381 159 = Detune;
#X floatatom 1116 238 5 0 0 0 - - - 0;
#X floatatom 1211 238 5 0 0 0 - - - 0;
#X obj 1211 205 + 1;
#X obj 1321 205 sel 0;
#X obj 1321 238 bng 25 250 50 0 empty empty empty 17 7 0 10 #191919 #e1e1e1 #e1e1e1;
#X obj 1350 238 bng 25 250 50 0 empty empty empty 17 7 0 10 #191919 #e1e1e1 #e1e1e1;
#X obj 1321 291 + 1;
#X obj 1179 151 mtof;
#X obj 1327 114 r volt;
#X obj 1214 434 inlet;
#X obj 1214 485 select 1, f 7;
#X msg 1255 529 0, f 3;
#X floatatom 1239 568 5 0 0 0 - - - 12;
#X obj 1293 546 spigot;
#X obj 1293 434 r hold;
#X floatatom 1163 434 5 0 0 0 - - - 12;
#X msg 1214 529 0.4, f 4;
#X obj 1214 322 r hold;
#X msg 1179 391 0, f 3;
#X obj 1222 391 select 0;
#X text 1293 341 = big uselles system to shutdown sound, f 17;
#X obj 1451 291 phasor~ 100;
#X obj 1542 291 phasor~ 101;
#X obj 1451 110 inlet;
#X text 1451 72 = Midi input convert to notes;
#X obj 1451 180 mtof;
#X obj 1451 467 *~;
#X obj 1451 383 +~;
#X floatatom 1670 160 5 0 5 0 - - - 12;
#X text 1728 159 = Detune;
#X floatatom 1463 238 5 0 0 0 - - - 0;
#X floatatom 1558 238 5 0 0 0 - - - 0;
#X obj 1558 205 + 1;
#X obj 1668 205 sel 0;
#X obj 1668 238 bng 25 250 50 0 empty empty empty 17 7 0 10 #191919 #e1e1e1 #e1e1e1;
#X obj 1697 238 bng 25 250 50 0 empty empty empty 17 7 0 10 #191919 #e1e1e1 #e1e1e1;
#X obj 1668 291 + 1;
#X obj 1526 151 mtof;
#X obj 1674 114 r volt;
#X obj 1561 434 inlet;
#X obj 1561 485 select 1, f 7;
#X msg 1602 529 0, f 3;
#X floatatom 1586 568 5 0 0 0 - - - 12;
#X obj 1640 546 spigot;
#X obj 1640 434 r hold;
#X floatatom 1510 434 5 0 0 0 - - - 12;
#X msg 1561 529 0.4, f 4;
#X obj 1561 322 r hold;
#X msg 1526 391 0, f 3;
#X obj 1569 391 select 0;
#X text 1640 341 = big uselles system to shutdown sound, f 17;
#X obj 1372 798 outlet~;
#X obj 424 630 +~;
#X obj 571 645 +~;
#X obj 1093 675 +~;
#X obj 1366 675 +~;
#X connect 0 0 6 0;
#X connect 1 0 8 0;
#X connect 2 0 8 1;
#X connect 3 0 5 0;
#X connect 3 0 19 0;
#X connect 5 0 12 0;
#X connect 7 0 157 0;
#X connect 8 0 7 0;
#X connect 9 0 0 0;
#X connect 10 0 15 0;
#X connect 10 0 14 1;
#X connect 12 0 1 0;
#X connect 13 0 2 0;
#X connect 14 0 13 0;
#X connect 15 0 16 0;
#X connect 15 1 17 0;
#X connect 16 0 18 0;
#X connect 17 0 14 0;
#X connect 18 0 13 0;
#X connect 19 0 14 0;
#X connect 19 0 18 0;
#X connect 20 0 10 0;
#X connect 21 0 22 0;
#X connect 22 0 23 0;
#X connect 24 0 25 0;
#X connect 25 0 31 0;
#X connect 25 1 26 0;
#X connect 26 0 27 0;
#X connect 27 0 28 0;
#X connect 28 0 30 0;
#X connect 29 0 28 1;
#X connect 30 0 7 1;
#X connect 31 0 27 0;
#X connect 32 0 34 0;
#X connect 33 0 30 0;
#X connect 34 0 33 0;
#X connect 36 0 42 0;
#X connect 37 0 42 1;
#X connect 38 0 40 0;
#X connect 38 0 52 0;
#X connect 40 0 45 0;
#X connect 41 0 157 1;
#X connect 42 0 41 0;
#X connect 43 0 48 0;
#X connect 43 0 47 1;
#X connect 45 0 36 0;
#X connect 46 0 37 0;
#X connect 47 0 46 0;
#X connect 48 0 49 0;
#X connect 48 1 50 0;
#X connect 49 0 51 0;
#X connect 50 0 47 0;
#X connect 51 0 46 0;
#X connect 52 0 47 0;
#X connect 52 0 51 0;
#X connect 53 0 43 0;
#X connect 54 0 55 0;
#X connect 55 0 61 0;
#X connect 55 1 56 0;
#X connect 56 0 57 0;
#X connect 57 0 58 0;
#X connect 58 0 60 0;
#X connect 59 0 58 1;
#X connect 60 0 41 1;
#X connect 61 0 57 0;
#X connect 62 0 64 0;
#X connect 63 0 60 0;
#X connect 64 0 63 0;
#X connect 66 0 72 0;
#X connect 67 0 72 1;
#X connect 68 0 70 0;
#X connect 68 0 82 0;
#X connect 70 0 75 0;
#X connect 71 0 158 1;
#X connect 72 0 71 0;
#X connect 73 0 78 0;
#X connect 73 0 77 1;
#X connect 75 0 66 0;
#X connect 76 0 67 0;
#X connect 77 0 76 0;
#X connect 78 0 79 0;
#X connect 78 1 80 0;
#X connect 79 0 81 0;
#X connect 80 0 77 0;
#X connect 81 0 76 0;
#X connect 82 0 77 0;
#X connect 82 0 81 0;
#X connect 83 0 73 0;
#X connect 84 0 85 0;
#X connect 85 0 91 0;
#X connect 85 1 86 0;
#X connect 86 0 87 0;
#X connect 87 0 88 0;
#X connect 88 0 90 0;
#X connect 89 0 88 1;
#X connect 90 0 71 1;
#X connect 91 0 87 0;
#X connect 92 0 94 0;
#X connect 93 0 90 0;
#X connect 94 0 93 0;
#X connect 96 0 102 0;
#X connect 97 0 102 1;
#X connect 98 0 100 0;
#X connect 98 0 112 0;
#X connect 100 0 105 0;
#X connect 101 0 159 1;
#X connect 102 0 101 0;
#X connect 103 0 108 0;
#X connect 103 0 107 1;
#X connect 105 0 96 0;
#X connect 106 0 97 0;
#X connect 107 0 106 0;
#X connect 108 0 109 0;
#X connect 108 1 110 0;
#X connect 109 0 111 0;
#X connect 110 0 107 0;
#X connect 111 0 106 0;
#X connect 112 0 107 0;
#X connect 112 0 111 0;
#X connect 113 0 103 0;
#X connect 114 0 115 0;
#X connect 115 0 121 0;
#X connect 115 1 116 0;
#X connect 116 0 117 0;
#X connect 117 0 118 0;
#X connect 118 0 120 0;
#X connect 119 0 118 1;
#X connect 120 0 101 1;
#X connect 121 0 117 0;
#X connect 122 0 124 0;
#X connect 123 0 120 0;
#X connect 124 0 123 0;
#X connect 126 0 132 0;
#X connect 127 0 132 1;
#X connect 128 0 130 0;
#X connect 128 0 142 0;
#X connect 130 0 135 0;
#X connect 131 0 160 1;
#X connect 132 0 131 0;
#X connect 133 0 138 0;
#X connect 133 0 137 1;
#X connect 135 0 126 0;
#X connect 136 0 127 0;
#X connect 137 0 136 0;
#X connect 138 0 139 0;
#X connect 138 1 140 0;
#X connect 139 0 141 0;
#X connect 140 0 137 0;
#X connect 141 0 136 0;
#X connect 142 0 137 0;
#X connect 142 0 141 0;
#X connect 143 0 133 0;
#X connect 144 0 145 0;
#X connect 145 0 151 0;
#X connect 145 1 146 0;
#X connect 146 0 147 0;
#X connect 147 0 148 0;
#X connect 148 0 150 0;
#X connect 149 0 148 1;
#X connect 150 0 131 1;
#X connect 151 0 147 0;
#X connect 152 0 154 0;
#X connect 153 0 150 0;
#X connect 154 0 153 0;
#X connect 157 0 158 0;
#X connect 158 0 159 0;
#X connect 159 0 160 0;
#X connect 160 0 156 0;
#X restore 37 791 pd osc_drone;
#N canvas 0 50 450 300 osc_melody 0;
#X obj 383 249 inlet;
#X obj 460 249 inlet;
#X restore 152 1068 pd osc_melody;
#N canvas 0 50 450 300 osc_melody 0;
#X obj 383 249 inlet;
#X obj 460 249 inlet;
#X restore 278 1068 pd osc_melody;
#N canvas 0 50 450 300 osc_noise 0;
#X obj 209 67 noise~;
#X obj 219 230 outlet~;
#X obj 209 142 *~;
#X obj 65 81 inlet;
#X floatatom 67 142 5 0 0 0 - - - 12;
#X connect 0 0 2 0;
#X connect 2 0 1 0;
#X connect 3 0 4 0;
#X connect 4 0 2 1;
#X restore 37 1068 pd osc_noise;
#X obj 52 126 knob 34 0 127 0 0 empty empty #191919 #696969 #E1E1E1 1 0 0 0 1 270 0 0 0;
#X obj 52 196 tgl 44 0 empty empty empty 17 7 0 10 #191919 #e1e1e1 #e1e1e1 0 1;
#X obj 244 206 knob 34 0 5 0 0 empty empty #191919 #696969 #E1E1E1 1 0 0 0 1 270 0 0 0;
#X obj 52 80 tgl 34 0 empty empty empty 17 7 0 10 #191919 #e1e1e1 #e1e1e1 0 1;
#X obj 100 126 knob 34 0 127 0 0 empty empty #191919 #696969 #E1E1E1 1 0 0 0 1 270 0 0 0;
#X obj 100 80 tgl 34 0 empty empty empty 17 7 0 10 #191919 #e1e1e1 #e1e1e1 0 1;
#X obj 148 126 knob 34 0 127 0 0 empty empty #191919 #696969 #E1E1E1 1 0 0 0 1 270 0 0 0;
#X obj 148 80 tgl 34 0 empty empty empty 17 7 0 10 #191919 #e1e1e1 #e1e1e1 0 1;
#X obj 196 126 knob 34 0 127 0 0 empty empty #191919 #696969 #E1E1E1 1 0 0 0 1 270 0 0 0;
#X obj 196 80 tgl 34 0 empty empty empty 17 7 0 10 #191919 #e1e1e1 #e1e1e1 0 1;
#X obj 244 126 knob 34 0 127 0 0 empty empty #191919 #696969 #E1E1E1 1 0 0 0 1 270 0 0 0;
#X obj 244 80 tgl 34 0 empty empty empty 17 7 0 10 #191919 #e1e1e1 #e1e1e1 0 1;
#X text 52 56 MUTE;
#X text 52 170 HOLD;
#X text 244 170 VOLT;
#X obj 608 206 knob 50 0 3000 0 0 empty empty #191919 #696969 #E1E1E1 1 0 0 0 1 270 0 0 0;
#X obj 677 206 knob 50 1 20 0 0 empty empty #191919 #696969 #E1E1E1 1 0 0 0 1 270 0 0 1;
#X obj 52 322 knob 50 0 1 0 0 empty empty #191919 #696969 #E1E1E1 1 0 0 0 1 270 0 0 0;
#X text 52 26 OSC 1;
#X text 52 282 OSC 3;
#N canvas 0 50 450 300 osc_drone 0;
#X obj 2642 1105 tgl 54 0 empty empty empty 17 7 0 10 #191919 #e1e1e1 #e1e1e1 0 1;
#X obj 53 291 phasor~ 100;
#X obj 144 291 phasor~ 101;
#X obj 53 110 inlet;
#X text 53 72 = Midi input convert to notes;
#X obj 53 180 mtof;
#X obj 2644 1444 s hold;
#X obj 53 467 *~;
#X obj 53 383 +~;
#X obj 2631 1033 inlet;
#X floatatom 272 160 5 0 5 0 - - - 12;
#X text 330 159 = Detune;
#X floatatom 65 238 5 0 0 0 - - - 0;
#X floatatom 160 238 5 0 0 0 - - - 0;
#X obj 160 205 + 1;
#X obj 270 205 sel 0;
#X obj 270 238 bng 25 250 50 0 empty empty empty 17 7 0 10 #191919 #e1e1e1 #e1e1e1;
#X obj 299 238 bng 25 250 50 0 empty empty empty 17 7 0 10 #191919 #e1e1e1 #e1e1e1;
#X obj 270 291 + 1;
#X obj 128 151 mtof;
#X obj 276 114 r volt;
#X obj 2755 1043 inlet;
#X floatatom 2757 1095 5 0 0 0 - - - 12;
#X obj 2755 1152 s volt;
#X obj 163 434 inlet;
#X obj 163 485 select 1, f 7;
#X msg 204 529 0, f 3;
#X floatatom 188 568 5 0 0 0 - - - 12;
#X obj 242 546 spigot;
#X obj 242 434 r hold;
#X floatatom 112 434 5 0 0 0 - - - 12;
#X msg 163 529 0.4, f 4;
#X obj 163 322 r hold;
#X msg 128 391 0, f 3;
#X obj 171 391 select 0;
#X text 242 341 = big uselles system to shutdown sound, f 17;
#X obj 410 291 phasor~ 100;
#X obj 501 291 phasor~ 101;
#X obj 410 110 inlet;
#X text 410 72 = Midi input convert to notes;
#X obj 410 180 mtof;
#X obj 410 467 *~;
#X obj 410 383 +~;
#X floatatom 629 160 5 0 5 0 - - - 12;
#X text 687 159 = Detune;
#X floatatom 422 238 5 0 0 0 - - - 0;
#X floatatom 517 238 5 0 0 0 - - - 0;
#X obj 517 205 + 1;
#X obj 627 205 sel 0;
#X obj 627 238 bng 25 250 50 0 empty empty empty 17 7 0 10 #191919 #e1e1e1 #e1e1e1;
#X obj 656 238 bng 25 250 50 0 empty empty empty 17 7 0 10 #191919 #e1e1e1 #e1e1e1;
#X obj 627 291 + 1;
#X obj 485 151 mtof;
#X obj 633 114 r volt;
#X obj 520 434 inlet;
#X obj 520 485 select 1, f 7;
#X msg 561 529 0, f 3;
#X floatatom 545 568 5 0 0 0 - - - 12;
#X obj 599 546 spigot;
#X obj 599 434 r hold;
#X floatatom 469 434 5 0 0 0 - - - 12;
#X msg 520 529 0.4, f 4;
#X obj 520 322 r hold;
#X msg 485 391 0, f 3;
#X obj 528 391 select 0;
#X text 599 341 = big uselles system to shutdown sound, f 17;
#X obj 757 291 phasor~ 100;
#X obj 848 291 phasor~ 101;
#X obj 757 110 inlet;
#X text 757 72 = Midi input convert to notes;
#X obj 757 180 mtof;
#X obj 757 467 *~;
#X obj 757 383 +~;
#X floatatom 976 160 5 0 5 0 - - - 12;
#X text 1034 159 = Detune;
#X floatatom 769 238 5 0 0 0 - - - 0;
#X floatatom 864 238 5 0 0 0 - - - 0;
#X obj 864 205 + 1;
#X obj 974 205 sel 0;
#X obj 974 238 bng 25 250 50 0 empty empty empty 17 7 0 10 #191919 #e1e1e1 #e1e1e1;
#X obj 1003 238 bng 25 250 50 0 empty empty empty 17 7 0 10 #191919 #e1e1e1 #e1e1e1;
#X obj 974 291 + 1;
#X obj 832 151 mtof;
#X obj 980 114 r volt;
#X obj 867 434 inlet;
#X obj 867 485 select 1, f 7;
#X msg 908 529 0, f 3;
#X floatatom 892 568 5 0 0 0 - - - 12;
#X obj 946 546 spigot;
#X obj 946 434 r hold;
#X floatatom 816 434 5 0 0 0 - - - 12;
#X msg 867 529 0.4, f 4;
#X obj 867 322 r hold;
#X msg 832 391 0, f 3;
#X obj 875 391 select 0;
#X text 946 341 = big uselles system to shutdown sound, f 17;
#X obj 1104 291 phasor~ 100;
#X obj 1195 291 phasor~ 101;
#X obj 1104 110 inlet;
#X text 1104 72 = Midi input convert to notes;
#X obj 1104 180 mtof;
#X obj 1104 467 *~;
#X obj 1104 383 +~;
#X floatatom 1323 160 5 0 5 0 - - - 12;
#X text 1381 159 = Detune;
#X floatatom 1116 238 5 0 0 0 - - - 0;
#X floatatom 1211 238 5 0 0 0 - - - 0;
#X obj 1211 205 + 1;
#X obj 1321 205 sel 0;
#X obj 1321 238 bng 25 250 50 0 empty empty empty 17 7 0 10 #191919 #e1e1e1 #e1e1e1;
#X obj 1350 238 bng 25 250 50 0 empty empty empty 17 7 0 10 #191919 #e1e1e1 #e1e1e1;
#X obj 1321 291 + 1;
#X obj 1179 151 mtof;
#X obj 1327 114 r volt;
#X obj 1214 434 inlet;
#X obj 1214 485 select 1, f 7;
#X msg 1255 529 0, f 3;
#X floatatom 1239 568 5 0 0 0 - - - 12;
#X obj 1293 546 spigot;
#X obj 1293 434 r hold;
#X floatatom 1163 434 5 0 0 0 - - - 12;
#X msg 1214 529 0.4, f 4;
#X obj 1214 322 r hold;
#X msg 1179 391 0, f 3;
#X obj 1222 391 select 0;
#X text 1293 341 = big uselles system to shutdown sound, f 17;
#X obj 1451 291 phasor~ 100;
#X obj 1542 291 phasor~ 101;
#X obj 1451 110 inlet;
#X text 1451 72 = Midi input convert to notes;
#X obj 1451 180 mtof;
#X obj 1451 467 *~;
#X obj 1451 383 +~;
#X floatatom 1670 160 5 0 5 0 - - - 12;
#X text 1728 159 = Detune;
#X floatatom 1463 238 5 0 0 0 - - - 0;
#X floatatom 1558 238 5 0 0 0 - - - 0;
#X obj 1558 205 + 1;
#X obj 1668 205 sel 0;
#X obj 1668 238 bng 25 250 50 0 empty empty empty 17 7 0 10 #191919 #e1e1e1 #e1e1e1;
#X obj 1697 238 bng 25 250 50 0 empty empty empty 17 7 0 10 #191919 #e1e1e1 #e1e1e1;
#X obj 1668 291 + 1;
#X obj 1526 151 mtof;
#X obj 1674 114 r volt;
#X obj 1561 434 inlet;
#X obj 1561 485 select 1, f 7;
#X msg 1602 529 0, f 3;
#X floatatom 1586 568 5 0 0 0 - - - 12;
#X obj 1640 546 spigot;
#X obj 1640 434 r hold;
#X floatatom 1510 434 5 0 0 0 - - - 12;
#X msg 1561 529 0.4, f 4;
#X obj 1561 322 r hold;
#X msg 1526 391 0, f 3;
#X obj 1569 391 select 0;
#X text 1640 341 = big uselles system to shutdown sound, f 17;
#X obj 1372 798 outlet~;
#X obj 424 630 +~;
#X obj 571 645 +~;
#X obj 1093 675 +~;
#X obj 1366 675 +~;
#X connect 0 0 6 0;
#X connect 1 0 8 0;
#X connect 2 0 8 1;
#X connect 3 0 5 0;
#X connect 3 0 19 0;
#X connect 5 0 12 0;
#X connect 7 0 157 0;
#X connect 8 0 7 0;
#X connect 9 0 0 0;
#X connect 10 0 15 0;
#X connect 10 0 14 1;
#X connect 12 0 1 0;
#X connect 13 0 2 0;
#X connect 14 0 13 0;
#X connect 15 0 16 0;
#X connect 15 1 17 0;
#X connect 16 0 18 0;
#X connect 17 0 14 0;
#X connect 18 0 13 0;
#X connect 19 0 14 0;
#X connect 19 0 18 0;
#X connect 20 0 10 0;
#X connect 21 0 22 0;
#X connect 22 0 23 0;
#X connect 24 0 25 0;
#X connect 25 0 31 0;
#X connect 25 1 26 0;
#X connect 26 0 27 0;
#X connect 27 0 28 0;
#X connect 28 0 30 0;
#X connect 29 0 28 1;
#X connect 30 0 7 1;
#X connect 31 0 27 0;
#X connect 32 0 34 0;
#X connect 33 0 30 0;
#X connect 34 0 33 0;
#X connect 36 0 42 0;
#X connect 37 0 42 1;
#X connect 38 0 40 0;
#X connect 38 0 52 0;
#X connect 40 0 45 0;
#X connect 41 0 157 1;
#X connect 42 0 41 0;
#X connect 43 0 48 0;
#X connect 43 0 47 1;
#X connect 45 0 36 0;
#X connect 46 0 37 0;
#X connect 47 0 46 0;
#X connect 48 0 49 0;
#X connect 48 1 50 0;
#X connect 49 0 51 0;
#X connect 50 0 47 0;
#X connect 51 0 46 0;
#X connect 52 0 47 0;
#X connect 52 0 51 0;
#X connect 53 0 43 0;
#X connect 54 0 55 0;
#X connect 55 0 61 0;
#X connect 55 1 56 0;
#X connect 56 0 57 0;
#X connect 57 0 58 0;
#X connect 58 0 60 0;
#X connect 59 0 58 1;
#X connect 60 0 41 1;
#X connect 61 0 57 0;
#X connect 62 0 64 0;
#X connect 63 0 60 0;
#X connect 64 0 63 0;
#X connect 66 0 72 0;
#X connect 67 0 72 1;
#X connect 68 0 70 0;
#X connect 68 0 82 0;
#X connect 70 0 75 0;
#X connect 71 0 158 1;
#X connect 72 0 71 0;
#X connect 73 0 78 0;
#X connect 73 0 77 1;
#X connect 75 0 66 0;
#X connect 76 0 67 0;
#X connect 77 0 76 0;
#X connect 78 0 79 0;
#X connect 78 1 80 0;
#X connect 79 0 81 0;
#X connect 80 0 77 0;
#X connect 81 0 76 0;
#X connect 82 0 77 0;
#X connect 82 0 81 0;
#X connect 83 0 73 0;
#X connect 84 0 85 0;
#X connect 85 0 91 0;
#X connect 85 1 86 0;
#X connect 86 0 87 0;
#X connect 87 0 88 0;
#X connect 88 0 90 0;
#X connect 89 0 88 1;
#X connect 90 0 71 1;
#X connect 91 0 87 0;
#X connect 92 0 94 0;
#X connect 93 0 90 0;
#X connect 94 0 93 0;
#X connect 96 0 102 0;
#X connect 97 0 102 1;
#X connect 98 0 100 0;
#X connect 98 0 112 0;
#X connect 100 0 105 0;
#X connect 101 0 159 1;
#X connect 102 0 101 0;
#X connect 103 0 108 0;
#X connect 103 0 107 1;
#X connect 105 0 96 0;
#X connect 106 0 97 0;
#X connect 107 0 106 0;
#X connect 108 0 109 0;
#X connect 108 1 110 0;
#X connect 109 0 111 0;
#X connect 110 0 107 0;
#X connect 111 0 106 0;
#X connect 112 0 107 0;
#X connect 112 0 111 0;
#X connect 113 0 103 0;
#X connect 114 0 115 0;
#X connect 115 0 121 0;
#X connect 115 1 116 0;
#X connect 116 0 117 0;
#X connect 117 0 118 0;
#X connect 118 0 120 0;
#X connect 119 0 118 1;
#X connect 120 0 101 1;
#X connect 121 0 117 0;
#X connect 122 0 124 0;
#X connect 123 0 120 0;
#X connect 124 0 123 0;
#X connect 126 0 132 0;
#X connect 127 0 132 1;
#X connect 128 0 130 0;
#X connect 128 0 142 0;
#X connect 130 0 135 0;
#X connect 131 0 160 1;
#X connect 132 0 131 0;
#X connect 133 0 138 0;
#X connect 133 0 137 1;
#X connect 135 0 126 0;
#X connect 136 0 127 0;
#X connect 137 0 136 0;
#X connect 138 0 139 0;
#X connect 138 1 140 0;
#X connect 139 0 141 0;
#X connect 140 0 137 0;
#X connect 141 0 136 0;
#X connect 142 0 137 0;
#X connect 142 0 141 0;
#X connect 143 0 133 0;
#X connect 144 0 145 0;
#X connect 145 0 151 0;
#X connect 145 1 146 0;
#X connect 146 0 147 0;
#X connect 147 0 148 0;
#X connect 148 0 150 0;
#X connect 149 0 148 1;
#X connect 150 0 131 1;
#X connect 151 0 147 0;
#X connect 152 0 154 0;
#X connect 153 0 150 0;
#X connect 154 0 153 0;
#X connect 157 0 158 0;
#X connect 158 0 159 0;
#X connect 159 0 160 0;
#X connect 160 0 156 0;
#X restore 299 791 pd osc_drone;
#N canvas 0 50 450 300 osc_drone 0;
#X obj 2642 1105 tgl 54 0 empty empty empty 17 7 0 10 #191919 #e1e1e1 #e1e1e1 0 1;
#X obj 53 291 phasor~ 100;
#X obj 144 291 phasor~ 101;
#X obj 53 110 inlet;
#X text 53 72 = Midi input convert to notes;
#X obj 53 180 mtof;
#X obj 2644 1444 s hold;
#X obj 53 467 *~;
#X obj 53 383 +~;
#X obj 2631 1033 inlet;
#X floatatom 272 160 5 0 5 0 - - - 12;
#X text 330 159 = Detune;
#X floatatom 65 238 5 0 0 0 - - - 0;
#X floatatom 160 238 5 0 0 0 - - - 0;
#X obj 160 205 + 1;
#X obj 270 205 sel 0;
#X obj 270 238 bng 25 250 50 0 empty empty empty 17 7 0 10 #191919 #e1e1e1 #e1e1e1;
#X obj 299 238 bng 25 250 50 0 empty empty empty 17 7 0 10 #191919 #e1e1e1 #e1e1e1;
#X obj 270 291 + 1;
#X obj 128 151 mtof;
#X obj 276 114 r volt;
#X obj 2755 1043 inlet;
#X floatatom 2757 1095 5 0 0 0 - - - 12;
#X obj 2755 1152 s volt;
#X obj 163 434 inlet;
#X obj 163 485 select 1, f 7;
#X msg 204 529 0, f 3;
#X floatatom 188 568 5 0 0 0 - - - 12;
#X obj 242 546 spigot;
#X obj 242 434 r hold;
#X floatatom 112 434 5 0 0 0 - - - 12;
#X msg 163 529 0.4, f 4;
#X obj 163 322 r hold;
#X msg 128 391 0, f 3;
#X obj 171 391 select 0;
#X text 242 341 = big uselles system to shutdown sound, f 17;
#X obj 410 291 phasor~ 100;
#X obj 501 291 phasor~ 101;
#X obj 410 110 inlet;
#X text 410 72 = Midi input convert to notes;
#X obj 410 180 mtof;
#X obj 410 467 *~;
#X obj 410 383 +~;
#X floatatom 629 160 5 0 5 0 - - - 12;
#X text 687 159 = Detune;
#X floatatom 422 238 5 0 0 0 - - - 0;
#X floatatom 517 238 5 0 0 0 - - - 0;
#X obj 517 205 + 1;
#X obj 627 205 sel 0;
#X obj 627 238 bng 25 250 50 0 empty empty empty 17 7 0 10 #191919 #e1e1e1 #e1e1e1;
#X obj 656 238 bng 25 250 50 0 empty empty empty 17 7 0 10 #191919 #e1e1e1 #e1e1e1;
#X obj 627 291 + 1;
#X obj 485 151 mtof;
#X obj 633 114 r volt;
#X obj 520 434 inlet;
#X obj 520 485 select 1, f 7;
#X msg 561 529 0, f 3;
#X floatatom 545 568 5 0 0 0 - - - 12;
#X obj 599 546 spigot;
#X obj 599 434 r hold;
#X floatatom 469 434 5 0 0 0 - - - 12;
#X msg 520 529 0.4, f 4;
#X obj 520 322 r hold;
#X msg 485 391 0, f 3;
#X obj 528 391 select 0;
#X text 599 341 = big uselles system to shutdown sound, f 17;
#X obj 757 291 phasor~ 100;
#X obj 848 291 phasor~ 101;
#X obj 757 110 inlet;
#X text 757 72 = Midi input convert to notes;
#X obj 757 180 mtof;
#X obj 757 467 *~;
#X obj 757 383 +~;
#X floatatom 976 160 5 0 5 0 - - - 12;
#X text 1034 159 = Detune;
#X floatatom 769 238 5 0 0 0 - - - 0;
#X floatatom 864 238 5 0 0 0 - - - 0;
#X obj 864 205 + 1;
#X obj 974 205 sel 0;
#X obj 974 238 bng 25 250 50 0 empty empty empty 17 7 0 10 #191919 #e1e1e1 #e1e1e1;
#X obj 1003 238 bng 25 250 50 0 empty empty empty 17 7 0 10 #191919 #e1e1e1 #e1e1e1;
#X obj 974 291 + 1;
#X obj 832 151 mtof;
#X obj 980 114 r volt;
#X obj 867 434 inlet;
#X obj 867 485 select 1, f 7;
#X msg 908 529 0, f 3;
#X floatatom 892 568 5 0 0 0 - - - 12;
#X obj 946 546 spigot;
#X obj 946 434 r hold;
#X floatatom 816 434 5 0 0 0 - - - 12;
#X msg 867 529 0.4, f 4;
#X obj 867 322 r hold;
#X msg 832 391 0, f 3;
#X obj 875 391 select 0;
#X text 946 341 = big uselles system to shutdown sound, f 17;
#X obj 1104 291 phasor~ 100;
#X obj 1195 291 phasor~ 101;
#X obj 1104 110 inlet;
#X text 1104 72 = Midi input convert to notes;
#X obj 1104 180 mtof;
#X obj 1104 467 *~;
#X obj 1104 383 +~;
#X floatatom 1323 160 5 0 5 0 - - - 12;
#X text 1381 159 = Detune;
#X floatatom 1116 238 5 0 0 0 - - - 0;
#X floatatom 1211 238 5 0 0 0 - - - 0;
#X obj 1211 205 + 1;
#X obj 1321 205 sel 0;
#X obj 1321 238 bng 25 250 50 0 empty empty empty 17 7 0 10 #191919 #e1e1e1 #e1e1e1;
#X obj 1350 238 bng 25 250 50 0 empty empty empty 17 7 0 10 #191919 #e1e1e1 #e1e1e1;
#X obj 1321 291 + 1;
#X obj 1179 151 mtof;
#X obj 1327 114 r volt;
#X obj 1214 434 inlet;
#X obj 1214 485 select 1, f 7;
#X msg 1255 529 0, f 3;
#X floatatom 1239 568 5 0 0 0 - - - 12;
#X obj 1293 546 spigot;
#X obj 1293 434 r hold;
#X floatatom 1163 434 5 0 0 0 - - - 12;
#X msg 1214 529 0.4, f 4;
#X obj 1214 322 r hold;
#X msg 1179 391 0, f 3;
#X obj 1222 391 select 0;
#X text 1293 341 = big uselles system to shutdown sound, f 17;
#X obj 1451 291 phasor~ 100;
#X obj 1542 291 phasor~ 101;
#X obj 1451 110 inlet;
#X text 1451 72 = Midi input convert to notes;
#X obj 1451 180 mtof;
#X obj 1451 467 *~;
#X obj 1451 383 +~;
#X floatatom 1670 160 5 0 5 0 - - - 12;
#X text 1728 159 = Detune;
#X floatatom 1463 238 5 0 0 0 - - - 0;
#X floatatom 1558 238 5 0 0 0 - - - 0;
#X obj 1558 205 + 1;
#X obj 1668 205 sel 0;
#X obj 1668 238 bng 25 250 50 0 empty empty empty 17 7 0 10 #191919 #e1e1e1 #e1e1e1;
#X obj 1697 238 bng 25 250 50 0 empty empty empty 17 7 0 10 #191919 #e1e1e1 #e1e1e1;
#X obj 1668 291 + 1;
#X obj 1526 151 mtof;
#X obj 1674 114 r volt;
#X obj 1561 434 inlet;
#X obj 1561 485 select 1, f 7;
#X msg 1602 529 0, f 3;
#X floatatom 1586 568 5 0 0 0 - - - 12;
#X obj 1640 546 spigot;
#X obj 1640 434 r hold;
#X floatatom 1510 434 5 0 0 0 - - - 12;
#X msg 1561 529 0.4, f 4;
#X obj 1561 322 r hold;
#X msg 1526 391 0, f 3;
#X obj 1569 391 select 0;
#X text 1640 341 = big uselles system to shutdown sound, f 17;
#X obj 1372 798 outlet~;
#X obj 424 630 +~;
#X obj 571 645 +~;
#X obj 1093 675 +~;
#X obj 1366 675 +~;
#X connect 0 0 6 0;
#X connect 1 0 8 0;
#X connect 2 0 8 1;
#X connect 3 0 5 0;
#X connect 3 0 19 0;
#X connect 5 0 12 0;
#X connect 7 0 157 0;
#X connect 8 0 7 0;
#X connect 9 0 0 0;
#X connect 10 0 15 0;
#X connect 10 0 14 1;
#X connect 12 0 1 0;
#X connect 13 0 2 0;
#X connect 14 0 13 0;
#X connect 15 0 16 0;
#X connect 15 1 17 0;
#X connect 16 0 18 0;
#X connect 17 0 14 0;
#X connect 18 0 13 0;
#X connect 19 0 14 0;
#X connect 19 0 18 0;
#X connect 20 0 10 0;
#X connect 21 0 22 0;
#X connect 22 0 23 0;
#X connect 24 0 25 0;
#X connect 25 0 31 0;
#X connect 25 1 26 0;
#X connect 26 0 27 0;
#X connect 27 0 28 0;
#X connect 28 0 30 0;
#X connect 29 0 28 1;
#X connect 30 0 7 1;
#X connect 31 0 27 0;
#X connect 32 0 34 0;
#X connect 33 0 30 0;
#X connect 34 0 33 0;
#X connect 36 0 42 0;
#X connect 37 0 42 1;
#X connect 38 0 40 0;
#X connect 38 0 52 0;
#X connect 40 0 45 0;
#X connect 41 0 157 1;
#X connect 42 0 41 0;
#X connect 43 0 48 0;
#X connect 43 0 47 1;
#X connect 45 0 36 0;
#X connect 46 0 37 0;
#X connect 47 0 46 0;
#X connect 48 0 49 0;
#X connect 48 1 50 0;
#X connect 49 0 51 0;
#X connect 50 0 47 0;
#X connect 51 0 46 0;
#X connect 52 0 47 0;
#X connect 52 0 51 0;
#X connect 53 0 43 0;
#X connect 54 0 55 0;
#X connect 55 0 61 0;
#X connect 55 1 56 0;
#X connect 56 0 57 0;
#X connect 57 0 58 0;
#X connect 58 0 60 0;
#X connect 59 0 58 1;
#X connect 60 0 41 1;
#X connect 61 0 57 0;
#X connect 62 0 64 0;
#X connect 63 0 60 0;
#X connect 64 0 63 0;
#X connect 66 0 72 0;
#X connect 67 0 72 1;
#X connect 68 0 70 0;
#X connect 68 0 82 0;
#X connect 70 0 75 0;
#X connect 71 0 158 1;
#X connect 72 0 71 0;
#X connect 73 0 78 0;
#X connect 73 0 77 1;
#X connect 75 0 66 0;
#X connect 76 0 67 0;
#X connect 77 0 76 0;
#X connect 78 0 79 0;
#X connect 78 1 80 0;
#X connect 79 0 81 0;
#X connect 80 0 77 0;
#X connect 81 0 76 0;
#X connect 82 0 77 0;
#X connect 82 0 81 0;
#X connect 83 0 73 0;
#X connect 84 0 85 0;
#X connect 85 0 91 0;
#X connect 85 1 86 0;
#X connect 86 0 87 0;
#X connect 87 0 88 0;
#X connect 88 0 90 0;
#X connect 89 0 88 1;
#X connect 90 0 71 1;
#X connect 91 0 87 0;
#X connect 92 0 94 0;
#X connect 93 0 90 0;
#X connect 94 0 93 0;
#X connect 96 0 102 0;
#X connect 97 0 102 1;
#X connect 98 0 100 0;
#X connect 98 0 112 0;
#X connect 100 0 105 0;
#X connect 101 0 159 1;
#X connect 102 0 101 0;
#X connect 103 0 108 0;
#X connect 103 0 107 1;
#X connect 105 0 96 0;
#X connect 106 0 97 0;
#X connect 107 0 106 0;
#X connect 108 0 109 0;
#X connect 108 1 110 0;
#X connect 109 0 111 0;
#X connect 110 0 107 0;
#X connect 111 0 106 0;
#X connect 112 0 107 0;
#X connect 112 0 111 0;
#X connect 113 0 103 0;
#X connect 114 0 115 0;
#X connect 115 0 121 0;
#X connect 115 1 116 0;
#X connect 116 0 117 0;
#X connect 117 0 118 0;
#X connect 118 0 120 0;
#X connect 119 0 118 1;
#X connect 120 0 101 1;
#X connect 121 0 117 0;
#X connect 122 0 124 0;
#X connect 123 0 120 0;
#X connect 124 0 123 0;
#X connect 126 0 132 0;
#X connect 127 0 132 1;
#X connect 128 0 130 0;
#X connect 128 0 142 0;
#X connect 130 0 135 0;
#X connect 131 0 160 1;
#X connect 132 0 131 0;
#X connect 133 0 138 0;
#X connect 133 0 137 1;
#X connect 135 0 126 0;
#X connect 136 0 127 0;
#X connect 137 0 136 0;
#X connect 138 0 139 0;
#X connect 138 1 140 0;
#X connect 139 0 141 0;
#X connect 140 0 137 0;
#X connect 141 0 136 0;
#X connect 142 0 137 0;
#X connect 142 0 141 0;
#X connect 143 0 133 0;
#X connect 144 0 145 0;
#X connect 145 0 151 0;
#X connect 145 1 146 0;
#X connect 146 0 147 0;
#X connect 147 0 148 0;
#X connect 148 0 150 0;
#X connect 149 0 148 1;
#X connect 150 0 131 1;
#X connect 151 0 147 0;
#X connect 152 0 154 0;
#X connect 153 0 150 0;
#X connect 154 0 153 0;
#X connect 157 0 158 0;
#X connect 158 0 159 0;
#X connect 159 0 160 0;
#X connect 160 0 156 0;
#X restore 561 791 pd osc_drone;
#N canvas 0 50 450 300 osc_drone 0;
#X obj 2642 1105 tgl 54 0 empty empty empty 17 7 0 10 #191919 #e1e1e1 #e1e1e1 0 1;
#X obj 53 291 phasor~ 100;
#X obj 144 291 phasor~ 101;
#X obj 53 110 inlet;
#X text 53 72 = Midi input convert to notes;
#X obj 53 180 mtof;
#X obj 2644 1444 s hold;
#X obj 53 467 *~;
#X obj 53 383 +~;
#X obj 2631 1033 inlet;
#X floatatom 272 160 5 0 5 0 - - - 12;
#X text 330 159 = Detune;
#X floatatom 65 238 5 0 0 0 - - - 0;
#X floatatom 160 238 5 0 0 0 - - - 0;
#X obj 160 205 + 1;
#X obj 270 205 sel 0;
#X obj 270 238 bng 25 250 50 0 empty empty empty 17 7 0 10 #191919 #e1e1e1 #e1e1e1;
#X obj 299 238 bng 25 250 50 0 empty empty empty 17 7 0 10 #191919 #e1e1e1 #e1e1e1;
#X obj 270 291 + 1;
#X obj 128 151 mtof;
#X obj 276 114 r volt;
#X obj 2755 1043 inlet;
#X floatatom 2757 1095 5 0 0 0 - - - 12;
#X obj 2755 1152 s volt;
#X obj 163 434 inlet;
#X obj 163 485 select 1, f 7;
#X msg 204 529 0, f 3;
#X floatatom 188 568 5 0 0 0 - - - 12;
#X obj 242 546 spigot;
#X obj 242 434 r hold;
#X floatatom 112 434 5 0 0 0 - - - 12;
#X msg 163 529 0.4, f 4;
#X obj 163 322 r hold;
#X msg 128 391 0, f 3;
#X obj 171 391 select 0;
#X text 242 341 = big uselles system to shutdown sound, f 17;
#X obj 410 291 phasor~ 100;
#X obj 501 291 phasor~ 101;
#X obj 410 110 inlet;
#X text 410 72 = Midi input convert to notes;
#X obj 410 180 mtof;
#X obj 410 467 *~;
#X obj 410 383 +~;
#X floatatom 629 160 5 0 5 0 - - - 12;
#X text 687 159 = Detune;
#X floatatom 422 238 5 0 0 0 - - - 0;
#X floatatom 517 238 5 0 0 0 - - - 0;
#X obj 517 205 + 1;
#X obj 627 205 sel 0;
#X obj 627 238 bng 25 250 50 0 empty empty empty 17 7 0 10 #191919 #e1e1e1 #e1e1e1;
#X obj 656 238 bng 25 250 50 0 empty empty empty 17 7 0 10 #191919 #e1e1e1 #e1e1e1;
#X obj 627 291 + 1;
#X obj 485 151 mtof;
#X obj 633 114 r volt;
#X obj 520 434 inlet;
#X obj 520 485 select 1, f 7;
#X msg 561 529 0, f 3;
#X floatatom 545 568 5 0 0 0 - - - 12;
#X obj 599 546 spigot;
#X obj 599 434 r hold;
#X floatatom 469 434 5 0 0 0 - - - 12;
#X msg 520 529 0.4, f 4;
#X obj 520 322 r hold;
#X msg 485 391 0, f 3;
#X obj 528 391 select 0;
#X text 599 341 = big uselles system to shutdown sound, f 17;
#X obj 757 291 phasor~ 100;
#X obj 848 291 phasor~ 101;
#X obj 757 110 inlet;
#X text 757 72 = Midi input convert to notes;
#X obj 757 180 mtof;
#X obj 757 467 *~;
#X obj 757 383 +~;
#X floatatom 976 160 5 0 5 0 - - - 12;
#X text 1034 159 = Detune;
#X floatatom 769 238 5 0 0 0 - - - 0;
#X floatatom 864 238 5 0 0 0 - - - 0;
#X obj 864 205 + 1;
#X obj 974 205 sel 0;
#X obj 974 238 bng 25 250 50 0 empty empty empty 17 7 0 10 #191919 #e1e1e1 #e1e1e1;
#X obj 1003 238 bng 25 250 50 0 empty empty empty 17 7 0 10 #191919 #e1e1e1 #e1e1e1;
#X obj 974 291 + 1;
#X obj 832 151 mtof;
#X obj 980 114 r volt;
#X obj 867 434 inlet;
#X obj 867 485 select 1, f 7;
#X msg 908 529 0, f 3;
#X floatatom 892 568 5 0 0 0 - - - 12;
#X obj 946 546 spigot;
#X obj 946 434 r hold;
#X floatatom 816 434 5 0 0 0 - - - 12;
#X msg 867 529 0.4, f 4;
#X obj 867 322 r hold;
#X msg 832 391 0, f 3;
#X obj 875 391 select 0;
#X text 946 341 = big uselles system to shutdown sound, f 17;
#X obj 1104 291 phasor~ 100;
#X obj 1195 291 phasor~ 101;
#X obj 1104 110 inlet;
#X text 1104 72 = Midi input convert to notes;
#X obj 1104 180 mtof;
#X obj 1104 467 *~;
#X obj 1104 383 +~;
#X floatatom 1323 160 5 0 5 0 - - - 12;
#X text 1381 159 = Detune;
#X floatatom 1116 238 5 0 0 0 - - - 0;
#X floatatom 1211 238 5 0 0 0 - - - 0;
#X obj 1211 205 + 1;
#X obj 1321 205 sel 0;
#X obj 1321 238 bng 25 250 50 0 empty empty empty 17 7 0 10 #191919 #e1e1e1 #e1e1e1;
#X obj 1350 238 bng 25 250 50 0 empty empty empty 17 7 0 10 #191919 #e1e1e1 #e1e1e1;
#X obj 1321 291 + 1;
#X obj 1179 151 mtof;
#X obj 1327 114 r volt;
#X obj 1214 434 inlet;
#X obj 1214 485 select 1, f 7;
#X msg 1255 529 0, f 3;
#X floatatom 1239 568 5 0 0 0 - - - 12;
#X obj 1293 546 spigot;
#X obj 1293 434 r hold;
#X floatatom 1163 434 5 0 0 0 - - - 12;
#X msg 1214 529 0.4, f 4;
#X obj 1214 322 r hold;
#X msg 1179 391 0, f 3;
#X obj 1222 391 select 0;
#X text 1293 341 = big uselles system to shutdown sound, f 17;
#X obj 1451 291 phasor~ 100;
#X obj 1542 291 phasor~ 101;
#X obj 1451 110 inlet;
#X text 1451 72 = Midi input convert to notes;
#X obj 1451 180 mtof;
#X obj 1451 467 *~;
#X obj 1451 383 +~;
#X floatatom 1670 160 5 0 5 0 - - - 12;
#X text 1728 159 = Detune;
#X floatatom 1463 238 5 0 0 0 - - - 0;
#X floatatom 1558 238 5 0 0 0 - - - 0;
#X obj 1558 205 + 1;
#X obj 1668 205 sel 0;
#X obj 1668 238 bng 25 250 50 0 empty empty empty 17 7 0 10 #191919 #e1e1e1 #e1e1e1;
#X obj 1697 238 bng 25 250 50 0 empty empty empty 17 7 0 10 #191919 #e1e1e1 #e1e1e1;
#X obj 1668 291 + 1;
#X obj 1526 151 mtof;
#X obj 1674 114 r volt;
#X obj 1561 434 inlet;
#X obj 1561 485 select 1, f 7;
#X msg 1602 529 0, f 3;
#X floatatom 1586 568 5 0 0 0 - - - 12;
#X obj 1640 546 spigot;
#X obj 1640 434 r hold;
#X floatatom 1510 434 5 0 0 0 - - - 12;
#X msg 1561 529 0.4, f 4;
#X obj 1561 322 r hold;
#X msg 1526 391 0, f 3;
#X obj 1569 391 select 0;
#X text 1640 341 = big uselles system to shutdown sound, f 17;
#X obj 1372 798 outlet~;
#X obj 424 630 +~;
#X obj 571 645 +~;
#X obj 1093 675 +~;
#X obj 1366 675 +~;
#X connect 0 0 6 0;
#X connect 1 0 8 0;
#X connect 2 0 8 1;
#X connect 3 0 5 0;
#X connect 3 0 19 0;
#X connect 5 0 12 0;
#X connect 7 0 157 0;
#X connect 8 0 7 0;
#X connect 9 0 0 0;
#X connect 10 0 15 0;
#X connect 10 0 14 1;
#X connect 12 0 1 0;
#X connect 13 0 2 0;
#X connect 14 0 13 0;
#X connect 15 0 16 0;
#X connect 15 1 17 0;
#X connect 16 0 18 0;
#X connect 17 0 14 0;
#X connect 18 0 13 0;
#X connect 19 0 14 0;
#X connect 19 0 18 0;
#X connect 20 0 10 0;
#X connect 21 0 22 0;
#X connect 22 0 23 0;
#X connect 24 0 25 0;
#X connect 25 0 31 0;
#X connect 25 1 26 0;
#X connect 26 0 27 0;
#X connect 27 0 28 0;
#X connect 28 0 30 0;
#X connect 29 0 28 1;
#X connect 30 0 7 1;
#X connect 31 0 27 0;
#X connect 32 0 34 0;
#X connect 33 0 30 0;
#X connect 34 0 33 0;
#X connect 36 0 42 0;
#X connect 37 0 42 1;
#X connect 38 0 40 0;
#X connect 38 0 52 0;
#X connect 40 0 45 0;
#X connect 41 0 157 1;
#X connect 42 0 41 0;
#X connect 43 0 48 0;
#X connect 43 0 47 1;
#X connect 45 0 36 0;
#X connect 46 0 37 0;
#X connect 47 0 46 0;
#X connect 48 0 49 0;
#X connect 48 1 50 0;
#X connect 49 0 51 0;
#X connect 50 0 47 0;
#X connect 51 0 46 0;
#X connect 52 0 47 0;
#X connect 52 0 51 0;
#X connect 53 0 43 0;
#X connect 54 0 55 0;
#X connect 55 0 61 0;
#X connect 55 1 56 0;
#X connect 56 0 57 0;
#X connect 57 0 58 0;
#X connect 58 0 60 0;
#X connect 59 0 58 1;
#X connect 60 0 41 1;
#X connect 61 0 57 0;
#X connect 62 0 64 0;
#X connect 63 0 60 0;
#X connect 64 0 63 0;
#X connect 66 0 72 0;
#X connect 67 0 72 1;
#X connect 68 0 70 0;
#X connect 68 0 82 0;
#X connect 70 0 75 0;
#X connect 71 0 158 1;
#X connect 72 0 71 0;
#X connect 73 0 78 0;
#X connect 73 0 77 1;
#X connect 75 0 66 0;
#X connect 76 0 67 0;
#X connect 77 0 76 0;
#X connect 78 0 79 0;
#X connect 78 1 80 0;
#X connect 79 0 81 0;
#X connect 80 0 77 0;
#X connect 81 0 76 0;
#X connect 82 0 77 0;
#X connect 82 0 81 0;
#X connect 83 0 73 0;
#X connect 84 0 85 0;
#X connect 85 0 91 0;
#X connect 85 1 86 0;
#X connect 86 0 87 0;
#X connect 87 0 88 0;
#X connect 88 0 90 0;
#X connect 89 0 88 1;
#X connect 90 0 71 1;
#X connect 91 0 87 0;
#X connect 92 0 94 0;
#X connect 93 0 90 0;
#X connect 94 0 93 0;
#X connect 96 0 102 0;
#X connect 97 0 102 1;
#X connect 98 0 100 0;
#X connect 98 0 112 0;
#X connect 100 0 105 0;
#X connect 101 0 159 1;
#X connect 102 0 101 0;
#X connect 103 0 108 0;
#X connect 103 0 107 1;
#X connect 105 0 96 0;
#X connect 106 0 97 0;
#X connect 107 0 106 0;
#X connect 108 0 109 0;
#X connect 108 1 110 0;
#X connect 109 0 111 0;
#X connect 110 0 107 0;
#X connect 111 0 106 0;
#X connect 112 0 107 0;
#X connect 112 0 111 0;
#X connect 113 0 103 0;
#X connect 114 0 115 0;
#X connect 115 0 121 0;
#X connect 115 1 116 0;
#X connect 116 0 117 0;
#X connect 117 0 118 0;
#X connect 118 0 120 0;
#X connect 119 0 118 1;
#X connect 120 0 101 1;
#X connect 121 0 117 0;
#X connect 122 0 124 0;
#X connect 123 0 120 0;
#X connect 124 0 123 0;
#X connect 126 0 132 0;
#X connect 127 0 132 1;
#X connect 128 0 130 0;
#X connect 128 0 142 0;
#X connect 130 0 135 0;
#X connect 131 0 160 1;
#X connect 132 0 131 0;
#X connect 133 0 138 0;
#X connect 133 0 137 1;
#X connect 135 0 126 0;
#X connect 136 0 127 0;
#X connect 137 0 136 0;
#X connect 138 0 139 0;
#X connect 138 1 140 0;
#X connect 139 0 141 0;
#X connect 140 0 137 0;
#X connect 141 0 136 0;
#X connect 142 0 137 0;
#X connect 142 0 141 0;
#X connect 143 0 133 0;
#X connect 144 0 145 0;
#X connect 145 0 151 0;
#X connect 145 1 146 0;
#X connect 146 0 147 0;
#X connect 147 0 148 0;
#X connect 148 0 150 0;
#X connect 149 0 148 1;
#X connect 150 0 131 1;
#X connect 151 0 147 0;
#X connect 152 0 154 0;
#X connect 153 0 150 0;
#X connect 154 0 153 0;
#X connect 157 0 158 0;
#X connect 158 0 159 0;
#X connect 159 0 160 0;
#X connect 160 0 156 0;
#X restore 823 791 pd osc_drone;
#X obj 608 374 knob 50 0 1 0 0 empty empty #191919 #696969 #E1E1E1 1 0 0 0 1 270 0 0 0;
#X obj 608 295 knob 50 0 100 0 50 empty empty #191919 #696969 #E1E1E1 1 0 0 0 1 270 0 0 0;
#N canvas 0 50 450 300 filter_mixer 0;
#X obj 13 60 inlet~;
#X obj 100 60 inlet;
#X floatatom 102 108 5 0 0 0 - - - 12;
#X obj 44 165 *~;
#X obj 119 225 inlet;
#X floatatom 98 308 5 0 0 0 - - - 12;
#X obj 58 415 vcf~;
#X obj 176 225 inlet;
#X floatatom 178 340 5 0 0 0 - - - 12;
#X obj 98 333 sig~;
#X floatatom 382 419 5 0 0 0 - - - 12;
#X obj 404 561 line~;
#X obj 380 457 / 100;
#X floatatom 380 483 5 0 0 0 - - - 12;
#X obj 418 528 t f 20;
#X floatatom 380 483 5 0 0 0 - - - 12;
#X floatatom 380 483 5 0 0 0 - - - 12;
#X floatatom 298 510 5 0 0 0 - - - 12;
#X obj 404 609 *~;
#X obj 296 570 line~;
#X obj 296 609 *~;
#X obj 296 537 t f 20;
#X obj 296 483 expr 1 - $f1;
#X obj 432 748 dac~;
#X obj 380 369 inlet;
#X connect 0 0 3 0;
#X connect 1 0 2 0;
#X connect 2 0 3 1;
#X connect 3 0 6 0;
#X connect 4 0 5 0;
#X connect 5 0 9 0;
#X connect 6 1 20 1;
#X connect 6 1 18 1;
#X connect 7 0 8 0;
#X connect 8 0 6 2;
#X connect 9 0 6 1;
#X connect 10 0 12 0;
#X connect 11 0 18 0;
#X connect 12 0 13 0;
#X connect 12 0 15 0;
#X connect 12 0 16 0;
#X connect 12 0 22 0;
#X connect 13 0 14 0;
#X connect 14 0 11 0;
#X connect 17 0 21 0;
#X connect 18 0 23 1;
#X connect 19 0 20 0;
#X connect 20 0 23 0;
#X connect 21 0 19 0;
#X connect 22 0 17 0;
#X connect 24 0 10 0;
#X restore 37 865 pd filter_mixer;
#N canvas 0 50 450 300 filter_mixer 0;
#X obj 13 60 inlet~;
#X obj 100 60 inlet;
#X floatatom 102 108 5 0 0 0 - - - 12;
#X obj 44 165 *~;
#X obj 119 225 inlet;
#X floatatom 98 308 5 0 0 0 - - - 12;
#X obj 58 415 vcf~;
#X obj 176 225 inlet;
#X floatatom 178 340 5 0 0 0 - - - 12;
#X obj 98 333 sig~;
#X floatatom 382 419 5 0 0 0 - - - 12;
#X obj 404 561 line~;
#X obj 380 457 / 100;
#X floatatom 380 483 5 0 0 0 - - - 12;
#X obj 418 528 t f 20;
#X floatatom 380 483 5 0 0 0 - - - 12;
#X floatatom 380 483 5 0 0 0 - - - 12;
#X floatatom 298 510 5 0 0 0 - - - 12;
#X obj 404 609 *~;
#X obj 296 570 line~;
#X obj 296 609 *~;
#X obj 296 537 t f 20;
#X obj 296 483 expr 1 - $f1;
#X obj 432 748 dac~;
#X obj 380 369 inlet;
#X connect 0 0 3 0;
#X connect 1 0 2 0;
#X connect 2 0 3 1;
#X connect 3 0 6 0;
#X connect 4 0 5 0;
#X connect 5 0 9 0;
#X connect 6 1 20 1;
#X connect 6 1 18 1;
#X connect 7 0 8 0;
#X connect 8 0 6 2;
#X connect 9 0 6 1;
#X connect 10 0 12 0;
#X connect 11 0 18 0;
#X connect 12 0 13 0;
#X connect 12 0 15 0;
#X connect 12 0 16 0;
#X connect 12 0 22 0;
#X connect 13 0 14 0;
#X connect 14 0 11 0;
#X connect 17 0 21 0;
#X connect 18 0 23 1;
#X connect 19 0 20 0;
#X connect 20 0 23 0;
#X connect 21 0 19 0;
#X connect 22 0 17 0;
#X connect 24 0 10 0;
#X restore 37 1130 pd filter_mixer;
#X obj 742 374 knob 50 0 1 0 0 empty empty #191919 #696969 #E1E1E1 1 0 0 0 1 270 0 0 0;
#X obj 742 295 knob 50 0 100 0 50 empty empty #191919 #696969 #E1E1E1 1 0 0 0 1 270 0 0 0;
#X connect 0 0 29 0;
#X connect 3 0 30 0;
#X connect 4 0 0 0;
#X connect 5 0 0 10;
#X connect 6 0 0 11;
#X connect 7 0 0 1;
#X connect 8 0 0 2;
#X connect 9 0 0 3;
#X connect 10 0 0 4;
#X connect 11 0 0 5;
#X connect 12 0 0 6;
#X connect 13 0 0 7;
#X connect 14 0 0 8;
#X connect 15 0 0 9;
#X connect 19 0 29 2;
#X connect 19 0 30 2;
#X connect 20 0 29 3;
#X connect 20 0 30 3;
#X connect 21 0 3 0;
#X connect 27 0 29 1;
#X connect 28 0 29 4;
#X connect 31 0 30 1;
#X connect 32 0 30 4;
